<svg width="32" height="32" viewBox="0 0 32 32" fill="none" xmlns="http://www.w3.org/2000/svg">
<path fillRule="evenodd" clipRule="evenodd" d="M16 32C24.8366 32 32 24.8366 32 16C32 7.16344 24.8366 0 16 0C7.16344 0 0 7.16344 0 16C0 24.8366 7.16344 32 16 32Z" fill="black"/>
<path d="M10.9273 8.53629L16 8L21.0727 8.53629L25 13.8083L16 24.2887L7 13.8083L10.9273 8.53629Z" fill="#FDB300"/>
<path d="M10.6454 13.8083L16 24.2887L7 13.8083H10.6454Z" fill="#EA6C00"/>
<path d="M21.3542 13.8082L15.9997 24.2886L24.9997 13.8082H21.3542Z" fill="#EA6C00"/>
<path d="M10.6457 13.8082H21.3548L16.0002 24.2886L10.6457 13.8082Z" fill="#FDAD00"/>
<path d="M16.0002 8L10.9275 8.53628L10.6457 13.8083L16.0002 8Z" fill="#FDD231"/>
<path d="M16.0005 8L21.0732 8.53628L21.355 13.8083L16.0005 8Z" fill="#FDD231"/>
<path d="M24.9997 13.8084L21.0724 8.53638L21.3542 13.8084H24.9997Z" fill="#FDAD00"/>
<path d="M7 13.8084L10.9273 8.53638L10.6454 13.8084H7Z" fill="#FDAD00"/>
<path d="M16.0002 8L10.6457 13.8083H21.3548L16.0002 8Z" fill="#FEEEB7"/>
</svg>
